<svg width="17" height="19" viewBox="0 0 17 19" fill="none" xmlns="http://www.w3.org/2000/svg"><path d="M7.83333 7.33529C7.83333 6.9671 8.13181 6.66862 8.5 6.66862C8.86819 6.66862 9.16667 6.9671 9.16667 7.33529V9.33529H11.1667C11.5349 9.33529 11.8333 9.63376 11.8333 10.002C11.8333 10.3701 11.5349 10.6686 11.1667 10.6686H9.16667V12.6686C9.16667 13.0368 8.86819 13.3353 8.5 13.3353C8.13181 13.3353 7.83333 13.0368 7.83333 12.6686V10.6686H5.83333C5.46514 10.6686 5.16667 10.3701 5.16667 10.002C5.16667 9.63376 5.46514 9.33529 5.83333 9.33529H7.83333V7.33529Z" fill="#373737"></path><path fill-rule="evenodd" clip-rule="evenodd" d="M16.292 4.85151C16.288 4.84722 16.2838 4.84296 16.2796 4.83874L11.6491 0.208202L11.6435 0.202733C11.5225 0.0788515 11.3536 0.00195312 11.1667 0.00195312H1.16667C0.798477 0.00195312 0.5 0.30043 0.5 0.66862V18.002C0.5 18.3701 0.798477 18.6686 1.16667 18.6686H15.8333C16.2015 18.6686 16.5 18.3701 16.5 18.002V5.33529C16.5 5.14482 16.4201 4.973 16.292 4.85151ZM10.5 6.00195H15.1667V17.3353H1.83333V1.33529H10.5V6.00195ZM14.2239 4.66862H11.8333V2.2781L14.2239 4.66862Z" fill="#373737"></path></svg>