<svg width="32" height="33" viewBox="0 0 32 33" fill="none" xmlns="http://www.w3.org/2000/svg"><g clip-path="url(#clip0_46_1321)"><path fill-rule="evenodd" clip-rule="evenodd" d="M32 16.5C32 25.3366 24.8366 32.5 16 32.5C7.16344 32.5 0 25.3366 0 16.5C0 7.66344 7.16344 0.5 16 0.5C24.8366 0.5 32 7.66344 32 16.5ZM9.0733 15.6079C8.65674 15.1913 8.65674 14.5159 9.0733 14.0994C9.48986 13.6828 10.1652 13.6828 10.5818 14.0994L15.3592 18.8768L24.2713 9.96466C24.6879 9.54811 25.3633 9.54811 25.7798 9.96466C26.1964 10.3812 26.1964 11.0566 25.7798 11.4732L16.124 21.129C15.8138 21.4392 15.36 21.5184 14.9765 21.3665C14.8324 21.3151 14.6971 21.2316 14.5816 21.1162L9.0733 15.6079Z" fill="#27AD95"></path><path d="M30.9333 16.5C30.9333 24.7475 24.2475 31.4333 16 31.4333C7.75255 31.4333 1.06667 24.7475 1.06667 16.5C1.06667 8.25255 7.75255 1.56667 16 1.56667C24.2475 1.56667 30.9333 8.25255 30.9333 16.5ZM26.5341 9.21042L25.7798 9.96466L26.5341 9.21042C25.701 8.3773 24.3502 8.3773 23.5171 9.21042L15.3592 17.3683L11.336 13.3451C10.5029 12.512 9.15217 12.512 8.31905 13.3451C7.48594 14.1783 7.48593 15.529 8.31905 16.3621L13.8274 21.8705C14.0523 22.0954 14.3174 22.261 14.6007 22.3649C15.362 22.6588 16.2612 22.5003 16.8783 21.8832L26.5341 12.2274C27.3672 11.3943 27.3672 10.0435 26.5341 9.21042Z" stroke="#27AD95" stroke-width="2.13333"></path></g><defs><clipPath id="clip0_46_1321"><rect width="32" height="32" fill="white" transform="translate(0 0.5)"></rect></clipPath></defs></svg>