<svg xmlns="http://www.w3.org/2000/svg" xml:space="preserve" style="fill-rule:evenodd;clip-rule:evenodd;stroke-linejoin:round;stroke-miterlimit:2" viewBox="0 0 265 75"><path d="M55.36 31.357v31.176c0 6.674-5.419 12.092-12.092 12.092H12.092C5.418 74.625 0 69.207 0 62.533V31.357c0-6.674 5.418-12.092 12.092-12.092h31.176c6.673 0 12.092 5.418 12.092 12.092" style="fill:#30b230"/><path d="M78.563 58.142V28.613h6.055v24.508h12.733v5.021zM101.376 58.142V35.985h5.943v22.157zm2.977-25.045q-1.343 0-2.301-.898-.957-.897-.958-2.154 0-1.283.958-2.169t2.301-.887q1.348 0 2.308.886.96.885.959 2.169 0 1.259-.959 2.156-.96.897-2.308.897M118.318 45.313v12.829h-5.943V35.985h5.612l.094 5.531h-.356q.872-2.772 2.648-4.29t4.583-1.519q2.302 0 4.014 1.002 1.711 1.002 2.658 2.871.947 1.87.947 4.469v14.093h-5.943V45.085q0-2.064-1.065-3.238t-2.944-1.174q-1.254 0-2.228.55a3.85 3.85 0 0 0-1.526 1.582q-.55 1.033-.551 2.508M147.488 66.901q-2.768 0-4.824-.699-2.055-.7-3.346-1.928t-1.782-2.811l5.109-1.414q.284.613.864 1.198.58.587 1.549.96.97.374 2.408.374 2.271 0 3.573-1.044t1.302-3.244v-4.075h-.465a6.5 6.5 0 0 1-1.151 1.72q-.754.83-1.973 1.36t-3.017.53q-2.495 0-4.541-1.173t-3.259-3.569q-1.212-2.397-1.212-6.058 0-3.749 1.235-6.265 1.236-2.517 3.286-3.786a8.4 8.4 0 0 1 4.506-1.27q1.872 0 3.135.629t2.046 1.562 1.194 1.816h.24v-3.729h5.855v21.972q0 2.993-1.379 4.982t-3.799 2.976-5.554.986m.104-13.592q1.529 0 2.59-.751 1.06-.75 1.619-2.168.558-1.42.558-3.398 0-1.972-.553-3.435-.555-1.461-1.615-2.273t-2.599-.813q-1.555 0-2.62.84-1.064.839-1.607 2.305t-.543 3.376q0 1.926.547 3.349.548 1.422 1.613 2.195t2.61.773M170.917 58.419q-2.293 0-4.015-1.002-1.72-1.001-2.667-2.875-.947-1.873-.947-4.465V35.985h5.943v13.056q0 2.065 1.069 3.239 1.07 1.173 2.95 1.173 1.264 0 2.228-.549.964-.55 1.516-1.592.55-1.044.551-2.498V35.985h5.952v22.157h-5.621l-.085-5.531h.347q-.88 2.79-2.666 4.299t-4.555 1.509M194.749 58.572q-2.112 0-3.784-.745-1.671-.744-2.628-2.217t-.957-3.663q0-1.86.678-3.103a5.45 5.45 0 0 1 1.856-2.001 9.3 9.3 0 0 1 2.678-1.155 19.6 19.6 0 0 1 3.141-.551 75 75 0 0 0 3.097-.364q1.178-.171 1.73-.534.55-.365.551-1.08v-.098q0-.948-.403-1.604t-1.177-1.006-1.902-.349q-1.136 0-1.987.345-.852.346-1.395.923a3.5 3.5 0 0 0-.782 1.297l-5.451-.905q.563-1.936 1.892-3.284t3.303-2.059q1.974-.712 4.439-.712 1.784 0 3.468.423a9.5 9.5 0 0 1 3.024 1.323 6.6 6.6 0 0 1 2.127 2.327q.787 1.427.787 3.445v14.917h-5.638v-3.077h-.195a6.3 6.3 0 0 1-1.428 1.82q-.891.79-2.144 1.239-1.253.447-2.9.448m1.674-4.169q1.403 0 2.466-.558 1.063-.56 1.663-1.509a3.87 3.87 0 0 0 .602-2.115v-2.398q-.272.183-.802.343t-1.182.286q-.653.127-1.289.22l-1.129.163q-1.096.148-1.927.502-.83.354-1.29.948-.46.593-.46 1.487 0 .86.434 1.446.434.585 1.186.885.753.3 1.728.3M223.13 35.985v4.529h-13.146v-4.529zm-10.094-5.272h5.943v20.943q0 1.058.471 1.56.47.502 1.545.502.348 0 .959-.085.61-.084.929-.164l.851 4.457q-.993.295-1.97.41t-1.874.115q-3.333 0-5.094-1.617-1.76-1.618-1.76-4.654zM236.504 58.575q-3.334 0-5.769-1.433-2.435-1.432-3.751-4.003-1.317-2.57-1.317-5.98 0-3.436 1.317-6.011t3.751-4.008q2.435-1.433 5.769-1.433 3.342 0 5.771 1.433 2.43 1.432 3.746 4.008t1.316 6.011q0 3.41-1.316 5.98t-3.746 4.003q-2.429 1.433-5.771 1.433m0-4.679q1.587 0 2.653-.882t1.6-2.412q.533-1.53.533-3.464 0-1.954-.533-3.477-.533-1.524-1.6-2.399-1.066-.876-2.653-.876-1.588 0-2.652.876-1.062.875-1.596 2.394-.533 1.519-.533 3.482 0 1.934.533 3.464.534 1.53 1.596 2.412 1.064.882 2.652.882M251.479 58.142V35.985h5.76v3.858h.238q.603-2.048 2.04-3.101t3.3-1.053q.461 0 .99.052.529.053.932.147v5.31q-.394-.136-1.152-.22a13 13 0 0 0-1.417-.085q-1.36 0-2.442.589a4.3 4.3 0 0 0-1.694 1.63q-.612 1.042-.612 2.42v12.61z" style="fill-rule:nonzero"/><path d="m41.019 42.61 9.537 23.843h-4.671l-2.603-6.503h-8.865l-2.599 6.503h-4.669l9.535-23.843zM22.595 25.269v4.335H35.6v4.336h-4.266a39.4 39.4 0 0 1-7.846 13.657 32.5 32.5 0 0 0 5.061 3.7l-1.626 4.071a37 37 0 0 1-6.496-4.684 36.2 36.2 0 0 1-13.441 7.691l-1.162-4.182A31.9 31.9 0 0 0 17.371 47.6a39 39 0 0 1-6.119-9.325h4.855a34.7 34.7 0 0 0 4.32 6.236 35.1 35.1 0 0 0 6.308-10.569L5.254 33.94v-4.336H18.26v-4.335zm16.256 23.594-2.703 6.752h5.402z" style="fill:#fff;fill-rule:nonzero"/><path d="M47.275 15.189a12 12 0 0 1 0-.532c6.147-1.163 10.998-6.013 12.16-12.16a12 12 0 0 1 .533 0c1.162 6.147 6.013 10.997 12.16 12.16a12 12 0 0 1 0 .532c-6.147 1.163-10.998 6.013-12.16 12.161a12 12 0 0 1-.533 0c-1.162-6.148-6.013-10.998-12.16-12.161M64.69 5.074l-.001-.106.001-.107a6.12 6.12 0 0 0 4.861-4.86L69.657 0l.106.001a6.12 6.12 0 0 0 4.861 4.86l.001.107-.001.106a6.12 6.12 0 0 0-4.861 4.86 4 4 0 0 1-.212 0 6.12 6.12 0 0 0-4.861-4.86M37.338 10.062l-.001-.107.001-.106a6.12 6.12 0 0 0 4.86-4.86l.106-.001.107.001a6.12 6.12 0 0 0 4.86 4.86l.001.106-.001.107a6.12 6.12 0 0 0-4.86 4.86l-.107.001-.106-.001a6.12 6.12 0 0 0-4.86-4.86"/></svg>